<svg xmlns="http://www.w3.org/2000/svg" viewBox="0 0 2048 250" preserveAspectRatio="none">
<defs>
 <linearGradient id="p" x2="0" y2="1"><stop stop-color="#ff8fbc"/><stop offset=".55" stop-color="#ff4f98"/><stop offset="1" stop-color="#ee2f79"/></linearGradient>
 <linearGradient id="b" x2="0" y2="1"><stop stop-color="#55d6ff"/><stop offset=".55" stop-color="#20b8f0"/><stop offset="1" stop-color="#078fdd"/></linearGradient>
 <linearGradient id="g" x2="0" y2="1"><stop stop-color="#a7f35c"/><stop offset=".55" stop-color="#6fdc3d"/><stop offset="1" stop-color="#42b92c"/></linearGradient>
 <linearGradient id="pk" x2="0" y2="1"><stop stop-color="#ffdcef"/><stop offset=".6" stop-color="#ffadd7"/><stop offset="1" stop-color="#f58fc5"/></linearGradient>
 <linearGradient id="y" x2="0" y2="1"><stop stop-color="#fff277"/><stop offset=".55" stop-color="#ffd536"/><stop offset="1" stop-color="#f6b91b"/></linearGradient>
 <linearGradient id="v" x2="0" y2="1"><stop stop-color="#dfd1ff"/><stop offset=".55" stop-color="#b99cf6"/><stop offset="1" stop-color="#916fe2"/></linearGradient>
 <linearGradient id="o" x2="0" y2="1"><stop stop-color="#ffad54"/><stop offset=".55" stop-color="#ff7d25"/><stop offset="1" stop-color="#f15b0d"/></linearGradient>
 <linearGradient id="t" x2="0" y2="1"><stop stop-color="#56e3e3"/><stop offset=".55" stop-color="#25c7cb"/><stop offset="1" stop-color="#0ba5b0"/></linearGradient>
 <filter id="sh" x="-20%" y="-30%" width="140%" height="170%"><feDropShadow dx="0" dy="8" stdDeviation="7" flood-color="#24485c" flood-opacity=".22"/></filter>
 <filter id="ish"><feDropShadow dx="0" dy="4" stdDeviation="2" flood-opacity=".2"/></filter>
</defs>
<rect width="2048" height="250" fill="white"/>
<g filter="url(#sh)" stroke="#fff" stroke-opacity=".25" stroke-width="3">
 <path d="M8 72Q8 25 55 25H210Q247 25 247 64V212Q247 238 216 238H37Q8 238 8 207Z" fill="url(#p)"/>
 <path d="M251 66Q251 25 292 25H426Q468 25 468 66V211Q468 238 438 238H281Q251 238 251 209Z" fill="url(#b)"/>
 <path d="M472 67Q472 25 514 25H625Q667 25 667 67V211Q667 238 637 238H502Q472 238 472 209Z" fill="url(#g)"/>
 <path d="M671 65Q671 25 713 25H1002Q1044 25 1044 65V211Q1044 238 1014 238H701Q671 238 671 209Z" fill="url(#pk)"/>
 <path d="M1048 66Q1048 25 1090 25H1270Q1312 25 1312 66V211Q1312 238 1282 238H1078Q1048 238 1048 209Z" fill="url(#y)"/>
 <path d="M1316 66Q1316 25 1358 25H1515Q1557 25 1557 66V211Q1557 238 1527 238H1346Q1316 238 1316 209Z" fill="url(#v)"/>
 <path d="M1561 66Q1561 25 1603 25H1775Q1817 25 1817 66V211Q1817 238 1787 238H1591Q1561 238 1561 209Z" fill="url(#o)"/>
 <path d="M1821 66Q1821 25 1863 25H2001Q2040 25 2040 66V209Q2040 238 2010 238H1851Q1821 238 1821 209Z" fill="url(#t)"/>
</g>
<g fill="#fff" opacity=".24"><circle cx="34" cy="55" r="10"/><circle cx="226" cy="82" r="7"/><circle cx="493" cy="51" r="9"/><circle cx="646" cy="73" r="8"/><circle cx="696" cy="58" r="13"/><circle cx="1016" cy="64" r="11"/><circle cx="1081" cy="57" r="9"/><circle cx="1281" cy="74" r="8"/><circle cx="1594" cy="54" r="9"/><circle cx="1791" cy="82" r="12"/><circle cx="1860" cy="54" r="9"/><circle cx="2010" cy="71" r="8"/></g>
<g transform="translate(76 40)" filter="url(#ish)"><path d="M15 53L55 18l40 35v49H15Z" fill="#fff"/><path d="M5 55L55 10l50 45-10 11-40-35-40 35Z" fill="#ffedf4"/><rect x="45" y="69" width="22" height="33" rx="6" fill="#2e83d2"/><rect x="23" y="61" width="16" height="15" rx="3" fill="#63cfff"/><rect x="74" y="61" width="16" height="15" rx="3" fill="#63cfff"/></g>
<g transform="translate(310 44)" filter="url(#ish)"><rect x="0" y="8" width="42" height="42" rx="10" fill="#ffd83f" stroke="#fff" stroke-width="4"/><rect x="48" y="8" width="42" height="42" rx="10" fill="#ff72bd" stroke="#fff" stroke-width="4"/><rect x="0" y="56" width="42" height="42" rx="10" fill="#55df43" stroke="#fff" stroke-width="4"/><rect x="48" y="56" width="42" height="42" rx="10" fill="#67cfff" stroke="#fff" stroke-width="4"/></g>
<g transform="translate(510 58)" filter="url(#ish)"><path d="M10 55l15-31q5-10 18-10h45q12 0 18 11l13 30 12 7v23H0V63Z" fill="#36b8ef" stroke="#fff" stroke-width="4"/><path d="M38 24h44l13 28H25Z" fill="#dff8ff"/><circle cx="27" cy="86" r="15" fill="#243d5c"/><circle cx="104" cy="86" r="15" fill="#243d5c"/><circle cx="27" cy="86" r="7" fill="#fff"/><circle cx="104" cy="86" r="7" fill="#fff"/><rect x="8" y="59" width="18" height="9" rx="4" fill="#ffe35c"/><rect x="105" y="59" width="18" height="9" rx="4" fill="#ffe35c"/></g>
<g transform="translate(798 36)" filter="url(#ish)"><path d="M4 34l26 20 28-42 30 42 27-20-12 70H16Z" fill="#ffc62d" stroke="#fff" stroke-width="4"/><circle cx="58" cy="67" r="12" fill="#ff4e9b"/><circle cx="58" cy="67" r="5" fill="#fff" opacity=".6"/><circle cx="4" cy="33" r="8" fill="#ffd84b"/><circle cx="58" cy="11" r="8" fill="#ffd84b"/></g>
<g transform="translate(1130 50)" filter="url(#ish)"><circle cx="20" cy="20" r="20" fill="#a95d32"/><circle cx="88" cy="20" r="20" fill="#a95d32"/><circle cx="54" cy="52" r="47" fill="#c97943"/><ellipse cx="54" cy="61" rx="27" ry="22" fill="#f6d4ad"/><circle cx="38" cy="44" r="5" fill="#222"/><circle cx="70" cy="44" r="5" fill="#222"/><ellipse cx="54" cy="57" rx="8" ry="6" fill="#222"/><path d="M45 68q9 9 18 0" fill="none" stroke="#222" stroke-width="3" stroke-linecap="round"/></g>
<g transform="translate(1388 39)" filter="url(#ish)"><path d="M28 26q0-22 25-22t25 22" fill="none" stroke="#174a92" stroke-width="10"/><rect x="8" y="22" width="90" height="94" rx="25" fill="#168fe7" stroke="#fff" stroke-width="4"/><rect x="19" y="36" width="68" height="38" rx="14" fill="#32b8ff"/><rect x="23" y="77" width="60" height="27" rx="10" fill="#246dd0"/><rect x="42" y="70" width="23" height="20" rx="6" fill="#ff77bd" stroke="#ffd449" stroke-width="4"/></g>
<g transform="translate(1640 46) rotate(-8 55 55)" filter="url(#ish)"><path d="M8 25Q8 8 25 8h54l38 46-59 59L8 63Z" fill="#fff" stroke="#ffe1c9" stroke-width="5"/><circle cx="36" cy="34" r="9" fill="#ff8a34"/><text x="60" y="78" text-anchor="middle" font-family="Arial" font-weight="900" font-size="48" fill="#ff5f27">%</text></g>
<g transform="translate(1900 43) scale(.72)" filter="url(#ish)"><path d="M55 4c-31 0-50 20-50 48 0 36 50 80 50 80s50-44 50-80C105 24 86 4 55 4Z" fill="#ff3f62" stroke="#fff" stroke-width="5"/><circle cx="55" cy="50" r="20" fill="#fff"/></g>
<g font-family="Arial,Helvetica,sans-serif" font-weight="900" text-anchor="middle" fill="#fff" font-size="24">
 <text x="128" y="194">NOUVEAUTÉS</text><text x="360" y="194">CATALOGUE</text><text x="570" y="194">JOUETS</text>
 <text x="858" y="173" fill="#b9005c">MON MONDE DE</text><text x="858" y="202" fill="#b9005c">POUPÉES ET PRINCESSES</text>
 <text x="1180" y="194" fill="#174a74">BÉBÉ &amp; ENFANTS</text>
 <text x="1437" y="177" fill="#173e70">ARTICLES</text><text x="1437" y="205" fill="#173e70">SCOLAIRES</text>
 <text x="1689" y="194">PROMOTIONS</text><text x="1931" y="188" font-size="21">ENTRÉE</text><text x="1931" y="212" font-size="21">SCOLAIRE</text>
</g>
</svg>